<?xml version="1.0" standalone="no"?>
<!DOCTYPE svg PUBLIC "-//W3C//DTD SVG 20010904//EN"
 "http://www.w3.org/TR/2001/REC-SVG-20010904/DTD/svg10.dtd">
<svg version="1.0" xmlns="http://www.w3.org/2000/svg"
 width="619.000000pt" height="619.000000pt" viewBox="0 0 619.000000 619.000000"
 preserveAspectRatio="xMidYMid meet">
<metadata>
Created by potrace 1.14, written by Peter Selinger 2001-2017
</metadata>
<g transform="translate(0.000000,619.000000) scale(0.100000,-0.100000)"
fill="#000000" stroke="none">
<path d="M2600 6020 c0 -3 -18 -6 -40 -7 -29 -2 -48 -10 -64 -28 -13 -14 -33
-25 -45 -25 -11 0 -22 -7 -22 -15 -3 -35 -6 -40 -18 -37 -7 1 -10 -1 -7 -6 3
-5 -2 -22 -11 -38 -19 -36 -25 -183 -9 -203 8 -11 8 -15 -1 -18 -9 -3 -9 -11
3 -28 9 -13 12 -30 8 -36 -5 -8 -3 -9 5 -5 8 5 11 3 10 -5 -4 -18 10 -60 25
-78 6 -8 11 -25 11 -38 1 -13 5 -27 10 -31 21 -15 52 -68 49 -85 -1 -10 4 -17
14 -17 8 0 13 -3 9 -6 -5 -6 0 -15 31 -49 6 -7 12 -18 12 -23 0 -5 9 -17 20
-27 11 -10 20 -22 20 -27 0 -4 14 -27 30 -50 17 -22 30 -47 30 -53 0 -7 7 -18
15 -25 9 -7 13 -15 11 -17 -3 -3 6 -15 20 -27 39 -33 38 -106 -1 -106 -6 0
-18 11 -25 25 -7 13 -28 35 -47 47 -18 13 -31 29 -28 36 3 7 0 10 -6 7 -6 -4
-13 2 -16 14 -3 12 -10 21 -15 21 -13 0 -147 138 -140 144 3 3 0 6 -6 6 -7 0
-29 16 -49 35 -20 19 -43 35 -51 35 -7 0 -11 3 -9 8 3 4 -1 12 -8 19 -8 8 -15
9 -17 2 -2 -5 -19 5 -39 23 -19 18 -42 34 -50 36 -7 2 -17 9 -21 15 -4 7 -8 8
-8 4 0 -4 -15 6 -32 22 -34 32 -55 41 -42 19 7 -13 -45 29 -57 46 -4 5 -11 6
-17 2 -6 -3 -17 0 -25 8 -8 8 -17 13 -19 10 -3 -2 -27 5 -53 17 -66 29 -105
40 -105 28 0 -5 -10 -4 -22 3 -24 13 -28 14 -92 24 -31 5 -37 4 -31 -7 5 -8
-2 -5 -14 5 -22 20 -22 20 -15 0 7 -16 6 -17 -8 -6 -10 8 -24 10 -39 4 -13 -4
-38 -8 -56 -8 -17 1 -29 -1 -27 -3 2 -3 -15 -13 -38 -24 -24 -11 -58 -30 -76
-44 -31 -23 -66 -76 -57 -85 3 -3 -4 -13 -14 -22 -11 -10 -17 -25 -14 -34 4
-8 2 -13 -3 -10 -9 6 -9 -85 0 -109 3 -7 1 -15 -5 -19 -6 -4 -4 -13 7 -25 9
-10 13 -19 9 -19 -5 0 -4 -5 3 -12 7 -7 12 -20 12 -29 0 -10 7 -24 15 -32 8
-8 24 -34 37 -58 12 -24 27 -49 33 -55 5 -6 17 -22 25 -35 21 -31 150 -159
161 -159 5 0 9 -7 9 -16 0 -10 5 -14 16 -10 8 3 12 2 9 -4 -3 -6 -1 -10 5 -10
6 0 8 -5 5 -10 -4 -6 -3 -10 2 -9 20 3 34 -2 28 -11 -4 -6 -3 -9 2 -8 18 5 51
-14 56 -32 3 -11 16 -24 29 -29 12 -5 34 -21 47 -35 14 -14 30 -26 37 -26 6 0
17 -7 24 -15 7 -8 16 -13 20 -10 5 3 10 2 12 -2 1 -5 33 -24 71 -42 37 -19 67
-39 67 -45 0 -5 3 -6 7 -3 7 8 43 -21 43 -34 0 -5 -17 -7 -37 -4 -20 2 -42 0
-48 -5 -6 -5 -33 -12 -60 -14 -33 -4 -56 -13 -75 -31 -14 -14 -31 -25 -37 -25
-15 0 -57 -70 -56 -92 0 -10 -3 -18 -8 -18 -12 0 -5 -86 9 -102 9 -11 9 -18
-1 -29 -6 -7 -8 -10 -3 -6 10 8 40 -52 51 -102 4 -17 10 -29 14 -27 7 5 20
-21 51 -101 10 -28 10 -35 -4 -48 -9 -9 -14 -20 -11 -24 2 -5 -6 -18 -19 -30
-14 -13 -22 -30 -19 -40 3 -11 -2 -21 -11 -24 -9 -4 -16 -15 -16 -26 0 -11 -5
-23 -10 -26 -6 -4 -10 -14 -9 -23 1 -10 -3 -30 -9 -45 -7 -16 -12 -37 -12 -48
0 -10 -5 -19 -11 -19 -6 0 -9 -6 -6 -12 2 -7 0 -24 -6 -38 -5 -14 -10 -50 -11
-81 -2 -30 -6 -60 -9 -66 -4 -6 -3 -23 3 -38 7 -18 7 -39 0 -63 -6 -25 -6 -40
2 -49 8 -10 7 -13 -3 -13 -9 0 -10 -3 -4 -8 6 -4 10 -17 9 -29 -1 -13 3 -23 8
-23 6 0 7 -11 4 -24 -3 -14 -1 -28 5 -31 6 -4 8 -13 5 -21 -3 -7 1 -32 9 -54
8 -22 12 -40 8 -40 -3 0 0 -7 7 -15 6 -8 9 -18 6 -23 -3 -6 5 -17 18 -25 19
-13 31 -39 36 -85 1 -4 8 -14 16 -24 20 -21 11 -25 -61 -33 -33 -4 -64 -12
-70 -19 -5 -7 -29 -21 -52 -31 -24 -10 -43 -22 -43 -27 0 -4 -5 -8 -10 -8 -9
0 -64 -52 -96 -92 -13 -17 -28 -51 -26 -60 1 -5 -3 -8 -8 -8 -6 0 -10 -7 -10
-15 0 -8 -4 -15 -9 -15 -4 0 -7 -10 -7 -22 1 -13 -5 -31 -13 -41 -14 -16 -13
-17 4 -11 14 6 16 4 9 -7 -11 -17 -13 -149 -2 -143 5 3 8 2 9 -3 3 -37 26 -93
38 -93 5 0 12 -12 15 -26 4 -15 10 -23 13 -20 4 3 21 -7 38 -24 16 -16 39 -31
50 -32 11 -2 27 -8 35 -13 8 -5 51 -10 95 -10 61 -1 83 2 93 14 11 13 12 13 6
1 -6 -11 -2 -10 13 3 11 9 24 17 29 17 5 0 26 11 46 25 20 14 41 25 47 25 5 0
22 -11 37 -25 15 -14 33 -25 41 -25 7 0 25 -7 38 -16 14 -9 32 -13 41 -10 14
5 15 4 4 -9 -11 -13 -10 -14 4 -9 9 3 16 1 16 -5 0 -6 -4 -11 -10 -11 -5 0 -9
-3 -8 -8 4 -14 -13 -52 -23 -52 -6 0 -7 -5 -4 -10 4 -6 11 -7 17 -4 7 4 8 2 4
-4 -4 -7 -14 -12 -22 -12 -8 0 -12 -4 -9 -10 3 -5 2 -10 -4 -10 -10 0 -18 -20
-26 -61 -3 -12 -8 -25 -13 -28 -5 -3 -8 -14 -6 -23 1 -10 -2 -18 -6 -18 -5 0
-10 -12 -12 -27 -2 -18 -8 -27 -17 -25 -12 3 -12 1 -1 -13 12 -15 12 -18 -2
-26 -9 -5 -22 -34 -29 -65 -14 -61 -16 -63 -71 -67 -20 -2 -43 -9 -51 -15 -8
-7 -22 -10 -31 -6 -9 4 -16 1 -16 -6 0 -7 -6 -10 -14 -7 -8 3 -22 -1 -33 -8
-10 -8 -26 -15 -35 -15 -10 0 -18 -5 -18 -11 0 -5 5 -7 12 -3 7 4 8 3 4 -4 -4
-7 -18 -12 -31 -12 -13 0 -30 -6 -37 -13 -7 -7 -21 -16 -31 -20 -11 -4 -21
-16 -24 -27 -3 -11 -14 -22 -24 -25 -11 -4 -17 -10 -14 -15 7 -11 -20 -32 -29
-22 -4 4 -6 2 -4 -3 2 -6 -9 -23 -25 -38 -15 -15 -27 -34 -27 -41 0 -8 -7 -19
-15 -26 -11 -9 -13 -16 -6 -23 7 -7 5 -14 -5 -22 -8 -6 -18 -30 -21 -53 -3
-23 -10 -42 -16 -42 -7 0 -7 -4 1 -12 7 -7 12 -17 12 -23 0 -5 -5 -3 -10 5
-11 17 -11 18 -16 -60 -1 -25 -5 -54 -7 -65 -2 -11 -2 -24 1 -29 3 -6 7 -39 9
-75 6 -98 7 -110 16 -104 4 2 7 -1 7 -6 0 -6 0 -13 0 -16 0 -3 9 -21 20 -41
11 -19 15 -32 8 -28 -6 4 -1 -8 12 -26 13 -18 17 -30 9 -25 -7 5 0 -5 16 -23
51 -52 80 -91 77 -103 -1 -6 2 -8 8 -4 5 3 10 1 10 -5 0 -6 5 -8 11 -5 6 4 16
-1 24 -11 7 -11 17 -16 21 -12 4 4 15 -2 25 -14 11 -11 19 -18 19 -15 0 4 20
-5 45 -19 25 -13 64 -27 88 -29 23 -3 58 -8 78 -13 19 -5 49 -8 65 -6 16 2 41
-1 57 -7 21 -9 31 -8 44 2 14 12 16 12 8 0 -6 -10 -4 -12 5 -6 8 5 47 10 89
12 41 2 80 8 87 14 6 5 30 10 53 12 22 1 41 5 41 10 0 4 8 7 18 7 9 0 30 7 46
15 15 8 36 15 45 15 9 0 27 7 39 16 13 9 29 13 37 10 7 -2 19 2 25 10 14 16
35 19 25 4 -3 -5 1 -10 9 -10 9 0 16 -4 16 -10 0 -5 7 -10 15 -10 9 0 28 -11
43 -25 15 -14 32 -25 39 -25 7 0 16 -6 20 -14 4 -8 17 -16 28 -18 11 -2 19
-10 18 -16 -2 -7 7 -12 20 -12 13 0 32 -7 43 -15 10 -8 34 -15 52 -15 17 0 32
-4 32 -10 0 -5 7 -7 15 -4 9 4 29 1 46 -6 17 -7 47 -14 67 -15 21 -2 45 -6 55
-10 9 -4 17 -3 17 1 0 5 35 10 78 11 122 2 173 9 183 24 5 8 9 9 9 2 0 -15
109 10 121 28 4 7 11 10 15 7 4 -4 20 2 37 14 18 13 27 16 22 7 -6 -11 -5 -12
6 -1 7 6 19 12 26 12 15 0 76 40 81 53 2 4 9 7 16 7 8 0 25 9 39 20 29 23 53
26 60 8 4 -10 6 -10 6 0 1 10 10 8 34 -7 19 -11 37 -18 40 -14 4 3 7 2 7 -4 0
-6 10 -14 23 -18 20 -6 33 -9 79 -18 10 -2 21 -7 25 -12 4 -4 1 -5 -7 0 -11 6
-12 5 -4 -4 5 -6 37 -14 70 -17 32 -3 75 -7 94 -9 19 -2 53 -5 75 -6 22 -1 45
-4 50 -8 18 -13 60 -6 57 9 -2 10 3 8 19 -5 12 -11 19 -14 15 -7 -5 8 0 11 16
8 13 -2 30 0 38 4 9 5 36 11 60 15 25 4 50 10 55 14 6 4 31 14 57 21 26 7 49
19 52 27 3 8 10 12 15 9 5 -3 20 0 34 7 28 15 107 94 107 108 0 5 11 14 25 19
14 5 25 16 25 25 0 8 5 15 10 15 6 0 10 7 10 15 0 8 4 15 8 15 5 0 9 6 9 13 0
19 36 97 43 92 3 -2 6 8 7 23 0 15 4 43 7 62 4 19 8 42 8 50 0 8 4 20 8 25 5
6 5 28 1 50 -4 22 -6 64 -5 93 1 28 -1 52 -4 52 -4 0 -8 16 -9 36 -1 20 -9 44
-17 53 -9 10 -16 27 -16 39 0 11 -9 27 -20 35 -11 8 -17 17 -13 20 3 4 1 7 -5
7 -7 0 -12 6 -12 14 0 8 -7 17 -16 20 -9 4 -14 9 -11 12 8 8 -113 132 -132
136 -8 2 -26 16 -39 31 -14 15 -31 26 -38 23 -8 -3 -14 0 -14 7 0 8 -4 6 -10
-3 -8 -13 -10 -12 -10 2 0 10 -3 17 -7 16 -20 -4 -62 15 -56 26 4 7 2 7 -7 -1
-10 -9 -21 -9 -48 3 -21 8 -50 12 -70 9 -21 -3 -31 -1 -27 5 3 6 -1 7 -9 4 -9
-3 -16 -1 -16 6 0 6 -4 9 -8 6 -4 -2 -8 4 -8 15 0 10 4 19 9 19 5 0 5 10 1 23
-4 12 -7 32 -6 44 1 13 -3 23 -9 23 -7 0 -9 10 -5 24 3 14 1 28 -4 31 -6 4 -8
11 -5 16 4 5 1 9 -4 9 -6 0 -10 3 -9 8 6 21 -67 132 -87 132 -3 0 -21 12 -40
27 -25 20 -47 28 -80 29 -25 1 -47 -2 -50 -6 -8 -12 -53 13 -48 26 2 7 0 15
-6 19 -18 10 -13 21 16 34 20 9 28 9 33 0 5 -7 12 -4 22 10 8 11 18 18 21 15
4 -4 14 -1 24 7 15 12 16 12 8 -1 -4 -8 4 -4 18 9 15 13 24 27 22 32 -3 4 4
11 16 14 14 5 31 0 50 -14 15 -12 33 -21 39 -21 6 0 8 -4 5 -10 -3 -6 4 -10
17 -10 13 0 32 -7 42 -15 10 -8 23 -12 27 -9 5 3 9 1 9 -5 0 -13 124 -6 163 8
15 6 27 15 27 21 0 6 4 9 9 6 5 -3 12 1 15 10 3 8 10 13 15 9 16 -9 45 30 66
86 10 29 18 59 18 66 0 7 4 13 8 13 4 0 6 11 4 25 -1 14 2 25 7 25 6 0 7 8 3
18 -12 28 -12 66 -1 74 7 5 7 8 -1 8 -7 0 -13 11 -13 23 0 13 -9 32 -20 42
-15 13 -17 21 -9 31 12 15 9 22 -34 77 -16 20 -26 37 -24 37 3 0 -16 23 -43
52 -36 38 -52 50 -68 46 -17 -5 -20 -2 -15 16 2 11 5 27 5 34 1 7 12 15 25 18
21 6 28 15 24 37 0 4 4 7 9 7 6 0 10 7 10 15 0 8 4 15 8 15 5 0 17 18 27 40
10 22 22 40 27 40 5 0 6 5 3 10 -4 6 0 21 8 33 8 12 18 38 22 57 4 19 12 40
17 47 11 13 13 28 22 143 4 41 9 81 11 88 2 6 0 12 -6 12 -6 0 -6 6 0 18 13
25 13 25 2 54 -7 20 -7 28 2 31 9 3 9 8 -2 20 -7 10 -11 30 -9 47 3 22 1 30
-11 31 -10 0 -12 2 -4 6 9 3 10 10 3 22 -5 10 -7 30 -4 45 2 14 0 26 -6 26 -5
0 -10 12 -10 28 0 15 -7 38 -16 50 -8 12 -14 30 -12 41 2 10 -3 26 -11 35 -8
9 -16 31 -18 47 -1 16 -12 43 -23 59 -11 17 -28 42 -39 58 -10 15 -21 37 -25
50 -4 12 -16 27 -27 32 -10 6 -19 17 -19 25 0 8 -7 15 -16 15 -12 0 -14 3 -6
13 8 9 2 18 -24 36 -19 13 -34 30 -34 37 0 8 -4 15 -10 15 -5 1 -14 2 -20 3
-5 0 -10 6 -11 11 -2 21 -20 45 -34 45 -8 0 -15 5 -15 10 0 6 -5 10 -11 10 -6
0 -29 18 -51 40 -23 22 -45 40 -50 40 -4 0 -8 7 -8 16 0 8 -4 13 -8 10 -5 -3
-21 6 -37 20 -28 24 -38 28 -63 25 -7 -1 -11 4 -10 11 2 7 -7 14 -19 16 -13 2
-23 8 -23 14 0 6 -3 8 -7 5 -3 -4 -12 1 -20 11 -8 9 -11 11 -8 4 4 -8 -10 -2
-32 12 -21 14 -51 27 -66 28 -15 1 -27 6 -27 10 0 3 -8 9 -17 13 -10 3 -26 17
-36 30 -14 20 -15 23 -2 19 13 -5 13 -2 0 29 -8 19 -11 38 -7 41 8 9 11 86 3
86 -3 0 -6 21 -7 47 0 26 -5 48 -10 50 -5 2 -8 21 -6 43 2 22 0 40 -5 40 -6 0
-15 32 -22 70 -8 44 -18 70 -26 70 -7 0 -15 7 -19 15 -3 8 -1 15 5 15 5 0 2
11 -7 25 -9 14 -12 25 -8 25 5 0 3 4 -5 9 -7 5 -13 20 -13 35 0 14 -4 26 -9
26 -5 0 -9 6 -9 14 0 7 -7 19 -15 26 -8 7 -12 16 -9 21 3 5 1 9 -4 9 -6 0 -17
17 -26 38 -28 63 -61 120 -86 149 -14 16 -25 35 -25 43 0 8 -10 20 -23 26 -27
13 -54 48 -45 58 3 3 -1 6 -10 6 -9 0 -23 12 -31 28 -8 15 -30 41 -48 59 -18
18 -56 55 -84 82 -29 28 -55 51 -59 51 -4 0 -24 13 -44 28 -20 15 -49 34 -66
42 -16 8 -34 21 -38 28 -5 7 -13 10 -18 6 -5 -3 -8 0 -7 8 2 7 -3 12 -9 11 -7
-2 -13 2 -13 8 0 5 -4 7 -10 4 -5 -3 -21 2 -35 11 -14 9 -25 12 -25 8 0 -5 -6
-2 -13 6 -7 8 -23 17 -37 19 -14 1 -27 7 -30 11 -3 5 -21 12 -39 15 -18 3 -47
13 -63 21 -17 9 -27 11 -24 5 4 -6 0 -11 -8 -11 -8 0 -18 5 -22 11 -3 6 -16 8
-29 5 -12 -3 -25 -2 -29 1 -8 8 -86 11 -86 3z m-110 -4493 c0 -5 -6 -5 -12 -1
-9 6 -9 3 1 -9 15 -19 7 -51 -11 -45 -16 6 -20 58 -6 75 9 11 13 12 19 1 5 -7
9 -17 9 -21z"/>
</g>
</svg>
